PathFileType	4	(X/Y/Z)	/Users/itak/Documents/Research/Walk-IL/dataset/trc/00348_00011.trc
DataRate	CameraRate	NumFrames	NumMarkers	Units	OrigDataRate	OrigDataStartFrame	OrigNumFrames
100.000000	100.000000	4	56	mm	100.000000	577	660
Frame#	Time	RPSI			LPSI			STRN			T10			C7			CLAV			RBAK			LBAK			LSHO			LUPA			LAEL			LAOL			LWTS			LWPS			LFRA			LHPS			LHTS			RSHO			RUPA			RAEL			RAOL			RWTS			RWPS			RFRA			RIFD			RHTS			RHPS			RBHD			LFHD			RFHD			LBHD			LHIP			RHIP			RASI			LASI			LKNE			LTHI			LANK			LTIP			LTOE			LMT1			LMT5			LHEE			RKNE			RANK			RTIP			RTOE			RMT1			RMT5			RHEE			RTHI			L3			LIFD			*53			*54			*55			
		X1	Y1	Z1	X2	Y2	Z2	X3	Y3	Z3	X4	Y4	Z4	X5	Y5	Z5	X6	Y6	Z6	X7	Y7	Z7	X8	Y8	Z8	X9	Y9	Z9	X10	Y10	Z10	X11	Y11	Z11	X12	Y12	Z12	X13	Y13	Z13	X14	Y14	Z14	X15	Y15	Z15	X16	Y16	Z16	X17	Y17	Z17	X18	Y18	Z18	X19	Y19	Z19	X20	Y20	Z20	X21	Y21	Z21	X22	Y22	Z22	X23	Y23	Z23	X24	Y24	Z24	X25	Y25	Z25	X26	Y26	Z26	X27	Y27	Z27	X28	Y28	Z28	X29	Y29	Z29	X30	Y30	Z30	X31	Y31	Z31	X32	Y32	Z32	X33	Y33	Z33	X34	Y34	Z34	X35	Y35	Z35	X36	Y36	Z36	X37	Y37	Z37	X38	Y38	Z38	X39	Y39	Z39	X40	Y40	Z40	X41	Y41	Z41	X42	Y42	Z42	X43	Y43	Z43	X44	Y44	Z44	X45	Y45	Z45	X46	Y46	Z46	X47	Y47	Z47	X48	Y48	Z48	X49	Y49	Z49	X50	Y50	Z50	X51	Y51	Z51	X52	Y52	Z52	X53	Y53	Z53	X54	Y54	Z54	X55	Y55	Z55	X56	Y56	Z56	

578	5.77	675.8975830078125	970.98779296875	515.8683471679688	741.6155395507812	969.51513671875	628.4175415039062	522.1224365234375	1220.0498046875	680.5288696289062	733.612060546875	1145.104248046875	574.9412841796875	711.0946044921875	1394.579711914062	604.8589477539062	566.4315185546875	1344.247924804688	663.602294921875	722.2262573242188	1253.069946289062	526.4019165039062	764.0629272460938	1357.7080078125	691.9683227539062	709.9725341796875	1377.049072265625	777.9668579101562	748.2344970703125	1257.30517578125	835.369384765625	724.8905029296875	1058.37255859375	874.1038208007812	756.6775512695312	1034.867797851562	798.629150390625	599.8624267578125	830.6061401367188	899.2282104492188	657.3317260742188	816.046875	935.1301879882812	706.783447265625	957.103515625	898.359619140625	649.4984741210938	747.1310424804688	938.8839721679688	585.9868774414062	757.84619140625	930.9979248046875	595.4074096679688	1384.10107421875	479.0535583496094	581.7344360351562	1321.99560546875	415.4842529296875	553.8931884765625	1059.985595703125	358.197998046875	603.5606079101562	1044.864624023438	427.8157043457031	405.4967956542969	878.5059814453125	457.2262573242188	411.6580810546875	851.5602416992188	385.9430236816406	514.2787475585938	999.438232421875	358.2085266113281	345.8279724121094	715.2615356445312	472.9386901855469	346.6783142089844	789.7929077148438	464.8037719726562	374.2398071289062	776.1881103515625	402.1687622070312	627.2482299804688	1605.044555664062	550.0228881835938	514.9290771484375	1607.300170898438	725.2090454101562	484.6423034667969	1605.7021484375	628.4351196289062	694.8662719726562	1605.004150390625	677.81396484375	716.9944458007812	913.1438598632812	761.849853515625	550.1119995117188	921.0584106445312	462.371337890625	482.3312377929688	950.9124755859375	552.7527465820312	584.1972045898438	945.5174560546875	770.7394409179688	640.4993896484375	465.5562133789062	835.904052734375	656.8285522460938	603.3771362304688	821.0457763671875	710.131591796875	43.71006011962891	845.5484619140625	672.287353515625	253.4284820556641	851.3323364257812	494.5719299316406	42.14589309692383	845.7727661132812	549.0980834960938	31.74665832519531	785.1817626953125	592.1695556640625	38.13191986083984	891.7764892578125	722.3731079101562	37.15060424804688	771.2267456054688	508.7309265136719	454.5699462890625	524.8427734375	589.1915283203125	48.94130706787109	503.999267578125	517.2156372070312	333.9941101074219	543.1569213867188	490.5191040039062	40.53155136108398	674.7989501953125	560.7933349609375	33.29808044433594	664.0787353515625	501.7619018554688	35.15759658813477	561.0387573242188	657.455078125	46.78005981445312	500.8606872558594	477.5903625488281	713.7868041992188	508.7842407226562	709.0201416015625	1027.785278320312	570.5770874023438	569.6873168945312	676.7806396484375	911.7673950195312	nan	nan	nan	nan	nan	nan	nan	nan	nan	
579	5.78	677.08203125	971.123046875	520.9862670898438	741.18505859375	969.4332885742188	634.5671997070312	521.7095336914062	1219.935180664062	684.4793090820312	734.6881103515625	1145.082763671875	581.1134033203125	711.4210815429688	1394.4189453125	610.6234130859375	566.0328979492188	1344.203002929688	667.736328125	723.565673828125	1252.62939453125	532.6914672851562	763.3401489257812	1357.693969726562	698.444091796875	708.2714233398438	1377.237182617188	783.801513671875	745.9585571289062	1257.405151367188	841.6620483398438	722.0023803710938	1058.341918945312	879.9370727539062	754.5469360351562	1034.909301757812	804.7819213867188	595.8682861328125	831.1564331054688	903.3350219726562	652.9608154296875	816.1497802734375	939.6384887695312	703.2946166992188	957.0652465820312	903.8397216796875	644.7459716796875	747.4601440429688	943.3568115234375	581.2965698242188	758.5653686523438	935.0340576171875	597.3081665039062	1383.473876953125	483.3421325683594	584.5596923828125	1321.2490234375	419.71728515625	557.87548828125	1059.343872070312	361.8018188476562	607.1203002929688	1044.2490234375	432.1957702636719	409.3067321777344	875.764892578125	457.1137390136719	417.0475463867188	849.360595703125	385.7946166992188	518.5995483398438	998.3858032226562	360.8107299804688	351.5130920410156	711.681640625	470.7102661132812	351.4604797363281	786.2545166015625	463.0983581542969	380.2792053222656	773.434326171875	400.893310546875	628.4393310546875	1604.9111328125	554.031005859375	514.0427856445312	1607.68798828125	727.8341674804688	484.9489440917969	1605.87255859375	630.7728881835938	694.510009765625	1605.048828125	682.595703125	715.0504150390625	912.5852661132812	767.5026245117188	551.7091064453125	921.5575561523438	466.0402526855469	483.0508422851562	951.2190551757812	555.805908203125	582.2105712890625	944.7152709960938	775.1128540039062	641.488037109375	464.489501953125	837.2991333007812	657.7203369140625	602.359130859375	823.4832763671875	710.2097778320312	43.52649307250977	845.2800903320312	672.7853393554688	252.3854217529297	851.8740234375	494.6242980957031	41.97785949707031	845.6592407226562	549.0075073242188	31.37263679504395	785.0308227539062	592.2468872070312	38.18311309814453	891.5882568359375	722.4328002929688	36.52836990356445	771.0103759765625	508.4846801757812	455.0192565917969	527.6514892578125	589.8618774414062	49.3031120300293	504.8142700195312	516.9735717773438	334.2645263671875	545.1502685546875	490.1181945800781	40.66030120849609	674.9600219726562	560.419189453125	33.51730346679688	664.4275512695312	501.8615112304688	35.40183639526367	561.1504516601562	658.1981811523438	47.28384399414062	502.2233581542969	478.007568359375	714.1421508789062	511.5875854492188	709.4405517578125	1027.819946289062	576.4478149414062	565.138916015625	677.4952392578125	915.7925415039062	nan	nan	nan	nan	nan	nan	nan	nan	nan	
580	5.79	678.2723999023438	971.3492431640625	525.8492431640625	740.7752685546875	969.64111328125	640.3903198242188	521.30126953125	1219.956665039062	688.31103515625	735.6053466796875	1145.19384765625	587.2940673828125	711.7089233398438	1394.446411132812	616.3190307617188	565.6135864257812	1344.291748046875	671.7902221679688	724.8797607421875	1252.4326171875	538.8707885742188	762.55517578125	1357.842407226562	704.8506469726562	706.5215454101562	1377.571533203125	789.5447998046875	743.6600341796875	1257.677001953125	847.8779296875	719.196044921875	1058.463012695312	885.66650390625	752.5396118164062	1035.125122070312	810.8297729492188	592.0751953125	831.81201171875	907.250244140625	648.766845703125	816.3867797851562	943.951904296875	699.9118041992188	957.1664428710938	909.1657104492188	640.1310424804688	747.87060546875	947.5953979492188	576.7542114257812	759.3990478515625	938.8016967773438	599.1641235351562	1383.07080078125	487.6044311523438	587.3330078125	1320.715087890625	423.9432067871094	561.7598266601562	1058.895263671875	365.5858764648438	610.5830688476562	1043.8271484375	436.7550659179688	413.1822509765625	873.1671752929688	457.0922546386719	422.5555725097656	847.30322265625	385.7750244140625	522.8641357421875	997.519775390625	363.5988464355469	357.1043395996094	708.3833618164062	468.5125427246094	356.2171020507812	782.9529418945312	461.4180603027344	386.4304504394531	770.8572998046875	399.7458190917969	629.6378173828125	1604.883911132812	558.0103759765625	513.1715087890625	1608.220581054688	730.4035034179688	485.2761840820312	1606.166625976562	633.0652465820312	694.164794921875	1605.235717773438	687.32568359375	713.1988525390625	912.5090942382812	772.8865356445312	553.3756713867188	921.9459838867188	469.5713195800781	483.8324890136719	951.5277709960938	558.5901489257812	580.2677612304688	944.1942749023438	779.1629638671875	642.6561889648438	463.9197692871094	838.7246704101562	658.5970458984375	601.8532104492188	825.9108276367188	710.3356323242188	43.3514518737793	845.1349487304688	673.4940185546875	251.6939392089844	852.5261840820312	494.7300109863281	41.99299621582031	845.5559692382812	548.9529418945312	31.2253589630127	784.9166870117188	592.3380737304688	38.23837280273438	891.4619140625	722.5559692382812	36.09996032714844	770.9095458984375	508.1014404296875	455.4538879394531	530.4592895507812	590.7700805664062	49.72109222412109	505.9066467285156	516.6708374023438	334.5682678222656	547.1849365234375	489.5734558105469	40.76118469238281	675.15966796875	559.8101806640625	33.87558364868164	664.9453125	502.1123657226562	35.71577453613281	561.3190307617188	659.189453125	47.89183044433594	504.0387573242188	478.4700927734375	714.5091552734375	514.2283325195312	709.861083984375	1028.093139648438	582.07373046875	560.7501220703125	678.3532104492188	919.5289306640625	nan	nan	nan	nan	nan	nan	nan	nan	nan	
581	5.8	679.4325561523438	971.6846313476562	530.4617919921875	740.373779296875	970.161376953125	645.8573608398438	520.860595703125	1220.140625	691.9798583984375	736.3038330078125	1145.414184570312	593.4579467773438	711.9551391601562	1394.651733398438	621.908935546875	565.1683349609375	1344.523681640625	675.72412109375	726.1520385742188	1252.482666015625	544.8807983398438	761.7069702148438	1358.144287109375	711.1428833007812	704.7212524414062	1378.048461914062	795.1471557617188	741.3182983398438	1258.138305664062	853.9947509765625	716.4486694335938	1058.766479492188	891.2767333984375	750.6555786132812	1035.535278320312	816.7786865234375	588.4722900390625	832.5708618164062	910.9523315429688	644.7393188476562	816.7807006835938	948.0882568359375	696.617431640625	957.4368286132812	914.3323974609375	635.6585693359375	748.3614501953125	951.60693359375	572.3624267578125	760.322509765625	942.2764892578125	600.9657592773438	1382.922119140625	491.8230895996094	590.0387573242188	1320.439697265625	428.1306762695312	565.5440673828125	1058.674072265625	369.55517578125	613.944091796875	1043.635009765625	441.5003967285156	417.1127624511719	870.7440795898438	457.1662902832031	428.1788940429688	845.4274291992188	385.8889770507812	527.0791015625	996.8853759765625	366.5839233398438	362.6602172851562	705.3614501953125	466.3607177734375	360.9052734375	779.9271850585938	459.7452087402344	392.7010498046875	768.4874267578125	398.7206726074219	630.8404541015625	1604.9453125	561.9566040039062	512.31591796875	1608.877319335938	732.9185791015625	485.6236267089844	1606.569946289062	635.3095092773438	693.8289794921875	1605.54248046875	691.9962158203125	711.4358520507812	912.9203491210938	777.9752807617188	555.0900268554688	922.24267578125	472.9600830078125	484.6593322753906	951.852294921875	561.103515625	578.3826904296875	944.0098266601562	782.8778076171875	643.9796142578125	463.8536071777344	840.2998046875	659.2767333984375	601.8524169921875	828.3504028320312	710.5103759765625	43.14110565185547	845.160888671875	674.3948364257812	251.3109741210938	853.3648681640625	494.8716125488281	42.12060546875	845.4910278320312	548.9434204101562	31.2787914276123	784.8699340820312	592.4353637695312	38.24678039550781	891.4234619140625	722.7354736328125	35.85409164428711	770.9578857421875	507.6318664550781	455.8774108886719	533.1893920898438	591.9593505859375	50.18524551391602	507.2939453125	516.3605346679688	334.9121704101562	549.2122802734375	488.8677673339844	40.83780670166016	675.3623657226562	558.9888305664062	34.36370086669922	665.6515502929688	502.5470581054688	36.09975814819336	561.536376953125	660.4606323242188	48.59830093383789	506.3326110839844	478.9984741210938	714.89453125	516.663818359375	710.2738647460938	1028.595825195312	587.4238891601562	556.5082397460938	679.3318481445312	922.94970703125	nan	nan	nan	nan	nan	nan	nan	nan	nan	
